<?xml version="1.0" encoding="utf-8"?>
<!-- Generator: Adobe Illustrator 27.9.5, SVG Export Plug-In . SVG Version: 9.03 Build 54986)  -->
<svg version="1.1" id="圖層_1" xmlns="http://www.w3.org/2000/svg" xmlns:xlink="http://www.w3.org/1999/xlink" x="0px" y="0px"
	 viewBox="0 0 475.3 23.5" style="enable-background:new 0 0 475.3 23.5;" xml:space="preserve">
<style type="text/css">
	.st0{fill:#FFFFFF;}
</style>
<path id="Path_1" class="st0" d="M0,0.5v22.6h1V11.8h11.6v-0.9H1V1.4h13.5V0.5H0z"/>
<path id="Path_2" class="st0" d="M17.8,22.3c0-0.5,0.4-0.9,0.9-0.9s0.9,0.4,0.9,0.9s-0.4,0.9-0.9,0.9C18.3,23.3,17.8,22.8,17.8,22.3
	L17.8,22.3"/>
<path id="Path_3" class="st0" d="M41,17.2c0,3.4-2.7,6.3-7.6,6.3c-5,0-8.8-2.5-9.1-7.6h1c0.3,4.4,3.4,6.7,8.1,6.7
	c4.4,0,6.5-2.5,6.6-5.4c0-3.9-2.7-4.9-7.9-5.8c-4.3-0.7-6.9-2.1-6.9-5.8c0-3.6,3.1-5.4,7.2-5.4c4.5,0,7.5,2.3,7.7,6.4h-1
	c-0.3-3.3-2.5-5.5-6.7-5.5c-3.7,0-6.2,1.7-6.2,4.6c0,3.6,2.7,4.4,7,5.1C38.4,11.7,41,13.2,41,17.2"/>
<path id="Path_4" class="st0" d="M46.1,22.3c0-0.5,0.4-0.9,0.9-0.9s0.9,0.4,0.9,0.9s-0.4,0.9-0.9,0.9C46.6,23.3,46.1,22.8,46.1,22.3
	L46.1,22.3"/>
<path id="Path_5" class="st0" d="M54.6,0.5h8.8c4.1,0,6.8,2,6.8,6.3c0,3.3-2,5.3-5,5.9v0.1c5.7,0.7,4.1,9.8,5.4,10.2v0.2h-1.1
	c-1.2-0.9,0.5-10-6-10h-8v9.9h-1L54.6,0.5z M55.6,12.3h7.2c3.7,0,6.4-1.8,6.4-5.4c0-3.8-2.2-5.4-6.4-5.4h-7.2L55.6,12.3z"/>
<path id="Path_6" class="st0" d="M75.8,11.8C75.8,5,80,0.2,86.2,0.2S96.6,5,96.6,11.8s-4.2,11.7-10.4,11.7S75.8,18.6,75.8,11.8
	 M95.6,11.8c0-6.4-4-10.7-9.4-10.7s-9.4,4.3-9.4,10.7s4,10.8,9.4,10.8S95.6,18.3,95.6,11.8"/>
<path id="Path_7" class="st0" d="M103,0.5h1.3l14.4,21.2h0.1V0.5h1v22.6h-1.3L104.1,2H104v21.1h-1V0.5z"/>
<path id="Path_8" class="st0" d="M127,0.5h1.3l14.4,21.2h0.1V0.5h1v22.6h-1.3L128.1,2H128v21.1h-1V0.5z"/>
<rect id="Rectangle_1" x="151.1" y="0.5" class="st0" width="1" height="22.6"/>
<path id="Path_9" class="st0" d="M173.2,10.7v0.9h-12.7v10.7h14.2v0.9h-15.2V0.5h14.8v0.9h-13.8v9.3H173.2z"/>
<path id="Path_10" class="st0" d="M191.4,0.5h8.1c6.5,0,9.3,5.1,9.3,11.4s-3,11.2-9.5,11.2h-7.9L191.4,0.5L191.4,0.5z M192.4,22.2
	h6.9c5.5,0,8.6-3.9,8.6-10.3S205,1.4,199.6,1.4h-7.1L192.4,22.2L192.4,22.2z"/>
<path id="Path_11" class="st0" d="M229,10.7v0.9h-12.7v10.7h14.2v0.9h-15.2V0.5h14.8v0.9h-13.8v9.3H229z"/>
<path id="Path_12" class="st0" d="M251.8,17.2c0,3.4-2.7,6.3-7.6,6.3c-5,0-8.8-2.5-9.1-7.6h1c0.3,4.4,3.4,6.7,8.1,6.7
	c4.4,0,6.5-2.5,6.6-5.4c0-3.9-2.7-4.9-7.9-5.8c-4.3-0.7-6.9-2.1-6.9-5.8c0-3.6,3.1-5.4,7.2-5.4c4.5,0,7.5,2.3,7.7,6.4h-1
	c-0.3-3.3-2.5-5.5-6.7-5.5c-3.7,0-6.2,1.7-6.2,4.6c0,3.6,2.7,4.4,7,5.1C249.1,11.7,251.8,13.2,251.8,17.2"/>
<rect id="Rectangle_2" x="258.2" y="0.5" class="st0" width="1" height="22.6"/>
<path id="Path_13" class="st0" d="M276.2,1.1c-6.3,0-9.5,5-9.5,10.8c0,5.9,3,10.7,9.3,10.7c5.2,0,8.4-3.9,8.4-9.8h-7.8v-0.9h8.8
	v11.2h-0.8l-0.1-6h-0.1c-0.8,3.4-3.6,6.3-8.4,6.3c-6.7,0-10.3-5-10.3-11.6c0-6.4,3.7-11.7,10.5-11.7c4.6,0,8,2.6,8.8,6.8h-1
	C283.3,3.5,280.3,1.1,276.2,1.1"/>
<path id="Path_14" class="st0" d="M292.3,0.5h1.3L308,21.7h0.1V0.5h1v22.6h-1.3L293.4,2h-0.1v21.1h-1V0.5z"/>
<path id="Path_15" class="st0" d="M328.9,15.4l-3,7.7h-1l8.7-22.6h1.2l8.7,22.6h-1l-3-7.7L328.9,15.4z M339.2,14.6l-5-12.9h-0.1
	l-4.9,12.9H339.2z"/>
<path id="Path_16" class="st0" d="M353.1,1.4H345V0.5h17.1v0.9H354v21.7h-1L353.1,1.4z"/>
<path id="Path_17" class="st0" d="M381.7,10.7v0.9H369v10.7h14.2v0.9H368V0.5h14.9v0.9H369v9.3H381.7z"/>
<path id="Path_18" class="st0" d="M390.5,0.5v21.7h13v0.9h-14V0.5H390.5z"/>
<rect id="Rectangle_3" x="409.5" y="0.5" class="st0" width="1" height="22.6"/>
<path id="Path_19" class="st0" d="M431.6,10.7v0.9h-12.7v10.7H433v0.9h-15.2V0.5h14.8v0.9h-13.8v9.3H431.6z"/>
<path id="Path_20" class="st0" d="M439.4,0.5h8.8c4.1,0,6.8,2,6.8,6.3c0,3.3-2,5.3-5,5.9v0.1c5.7,0.7,4.1,9.8,5.4,10.2v0.2h-1.1
	c-1.2-0.9,0.5-10-6-10h-8v9.9h-1V0.5H439.4z M440.4,12.3h7.2c3.7,0,6.4-1.8,6.4-5.4c0-3.8-2.2-5.4-6.4-5.4h-7.2V12.3z"/>
<path id="Path_21" class="st0" d="M460.5,7.6c-0.1-4.1,3.2-7.5,7.3-7.6s7.5,3.2,7.6,7.3c0,0.1,0,0.2,0,0.3c0.1,4.1-3.2,7.5-7.3,7.6
	c-4.1,0.1-7.5-3.2-7.6-7.3C460.5,7.8,460.5,7.7,460.5,7.6 M474.3,7.6c0-3.5-2.9-6.4-6.4-6.4s-6.4,2.9-6.4,6.4s2.9,6.4,6.4,6.4
	S474.3,11.1,474.3,7.6L474.3,7.6 M465,11.6V3.4h3.4c1.5,0,2.6,0.8,2.6,2.2c0,1.1-0.8,1.9-1.9,2l0,0c1.9,0.4,1.2,3.4,2,3.8v0.1h-0.9
	c-1-0.6,0.1-3.5-2.1-3.5h-2v3.5L465,11.6z M468.3,7.2c1.3,0,1.7-0.5,1.7-1.5s-0.5-1.4-1.7-1.4H466v2.9H468.3z"/>
</svg>
