<?xml version="1.0" encoding="utf-8"?>
<!-- Generator: Adobe Illustrator 27.9.5, SVG Export Plug-In . SVG Version: 9.03 Build 54986)  -->
<svg version="1.1" id="圖層_1" xmlns="http://www.w3.org/2000/svg" xmlns:xlink="http://www.w3.org/1999/xlink" x="0px" y="0px"
	 viewBox="0 0 197 23.5" style="enable-background:new 0 0 197 23.5;" xml:space="preserve">
<style type="text/css">
	.st0{fill:#FFFFFF;}
</style>
<g>
	<path id="Path_1" class="st0" d="M0,0.5v22.6h1V11.8h11.6v-0.9H1V1.4h13.5V0.5H0z"/>
	<path id="Path_2" class="st0" d="M17.8,22.3c0-0.5,0.4-0.9,0.9-0.9s0.9,0.4,0.9,0.9s-0.4,0.9-0.9,0.9
		C18.3,23.3,17.8,22.8,17.8,22.3L17.8,22.3"/>
	<path id="Path_3" class="st0" d="M41,17.2c0,3.4-2.7,6.3-7.6,6.3c-5,0-8.8-2.5-9.1-7.6h1c0.3,4.4,3.4,6.7,8.1,6.7
		c4.4,0,6.5-2.5,6.6-5.4c0-3.9-2.7-4.9-7.9-5.8c-4.3-0.7-6.9-2.1-6.9-5.8c0-3.6,3.1-5.4,7.2-5.4c4.5,0,7.5,2.3,7.7,6.4h-1
		c-0.3-3.3-2.5-5.5-6.7-5.5c-3.7,0-6.2,1.7-6.2,4.6c0,3.6,2.7,4.4,7,5.1C38.4,11.7,41,13.2,41,17.2"/>
	<path id="Path_4" class="st0" d="M46.1,22.3c0-0.5,0.4-0.9,0.9-0.9s0.9,0.4,0.9,0.9s-0.4,0.9-0.9,0.9
		C46.6,23.3,46.1,22.8,46.1,22.3L46.1,22.3"/>
	<path id="Path_5" class="st0" d="M54.6,0.5h8.8c4.1,0,6.8,2,6.8,6.3c0,3.3-2,5.3-5,5.9v0.1c5.7,0.7,4.1,9.8,5.4,10.2v0.2h-1.1
		c-1.2-0.9,0.5-10-6-10h-8v9.9h-1L54.6,0.5z M55.6,12.3h7.2c3.7,0,6.4-1.8,6.4-5.4c0-3.8-2.2-5.4-6.4-5.4h-7.2L55.6,12.3z"/>
	<path id="Path_6" class="st0" d="M75.8,11.8C75.8,5,80,0.2,86.2,0.2S96.6,5,96.6,11.8s-4.2,11.7-10.4,11.7S75.8,18.6,75.8,11.8
		 M95.6,11.8c0-6.4-4-10.7-9.4-10.7s-9.4,4.3-9.4,10.7s4,10.8,9.4,10.8S95.6,18.3,95.6,11.8"/>
	<path id="Path_7" class="st0" d="M103,0.5h1.3l14.4,21.2h0.1V0.5h1v22.6h-1.3L104.1,2H104v21.1h-1V0.5z"/>
	<path id="Path_8" class="st0" d="M127,0.5h1.3l14.4,21.2h0.1V0.5h1v22.6h-1.3L128.1,2H128v21.1h-1V0.5z"/>
	<rect id="Rectangle_1" x="151.1" y="0.5" class="st0" width="1" height="22.6"/>
	<path id="Path_9" class="st0" d="M173.2,10.7v0.9h-12.7v10.7h14.2v0.9h-15.2V0.5h14.8v0.9h-13.8v9.3H173.2z"/>
	<path id="Path_21" class="st0" d="M182.1,7.6c-0.1-4.1,3.2-7.5,7.3-7.6s7.5,3.2,7.6,7.3c0,0.1,0,0.2,0,0.3c0.1,4.1-3.2,7.5-7.3,7.6
		c-4.1,0.1-7.5-3.2-7.6-7.3C182.1,7.8,182.1,7.7,182.1,7.6 M195.9,7.6c0-3.5-2.9-6.4-6.4-6.4s-6.4,2.9-6.4,6.4s2.9,6.4,6.4,6.4
		S195.9,11.1,195.9,7.6L195.9,7.6 M186.6,11.6V3.4h3.4c1.5,0,2.6,0.8,2.6,2.2c0,1.1-0.8,1.9-1.9,2l0,0c1.9,0.4,1.2,3.4,2,3.8v0.1
		h-0.9c-1-0.6,0.1-3.5-2.1-3.5h-2v3.5L186.6,11.6z M189.9,7.2c1.3,0,1.7-0.5,1.7-1.5s-0.5-1.4-1.7-1.4h-2.3v2.9H189.9z"/>
</g>
</svg>
